TITLE ""
FILE "Step4_Track15.mp3" MP3
  TRACK 01 AUDIO
    TITLE "Step4_Track15_01"
    INDEX 01 00:00:00
  TRACK 02 AUDIO
    TITLE "Step4_Track15_02"
    INDEX 01 00:00:24
  TRACK 03 AUDIO
    TITLE "Step4_Track15_03"
    INDEX 01 00:01:69
  TRACK 04 AUDIO
    TITLE "Step4_Track15_04"
    INDEX 01 00:02:50
  TRACK 05 AUDIO
    TITLE "Step4_Track15_05"
    INDEX 01 00:03:44
  TRACK 06 AUDIO
    TITLE "Step4_Track15_06"
    INDEX 01 00:03:52
  TRACK 07 AUDIO
    TITLE "Step4_Track15_07"
    INDEX 01 00:05:51
  TRACK 08 AUDIO
    TITLE "Step4_Track15_08"
    INDEX 01 00:05:72
  TRACK 09 AUDIO
    TITLE "Step4_Track15_09"
    INDEX 01 00:06:72
  TRACK 10 AUDIO
    TITLE "Step4_Track15_10"
    INDEX 01 00:07:06
  TRACK 11 AUDIO
    TITLE "Step4_Track15_11"
    INDEX 01 00:09:31
  TRACK 12 AUDIO
    TITLE "Step4_Track15_12"
    INDEX 01 00:09:52
  TRACK 13 AUDIO
    TITLE "Step4_Track15_13"
    INDEX 01 00:10:54
  TRACK 14 AUDIO
    TITLE "Step4_Track15_14"
    INDEX 01 00:10:60
  TRACK 15 AUDIO
    TITLE "Step4_Track15_15"
    INDEX 01 00:13:48
  TRACK 16 AUDIO
    TITLE "Step4_Track15_16"
    INDEX 01 00:13:58
  TRACK 17 AUDIO
    TITLE "Step4_Track15_17"
    INDEX 01 00:14:54
  TRACK 18 AUDIO
    TITLE "Step4_Track15_18"
    INDEX 01 00:15:02
  TRACK 19 AUDIO
    TITLE "Step4_Track15_19"
    INDEX 01 00:17:42
  TRACK 20 AUDIO
    TITLE "Step4_Track15_20"
    INDEX 01 00:17:58
  TRACK 21 AUDIO
    TITLE "Step4_Track15_21"
    INDEX 01 00:18:59
  TRACK 22 AUDIO
    TITLE "Step4_Track15_22"
    INDEX 01 00:18:71
  TRACK 23 AUDIO
    TITLE "Step4_Track15_23"
    INDEX 01 00:21:12
  TRACK 24 AUDIO
    TITLE "Step4_Track15_24"
    INDEX 01 00:21:28
  TRACK 25 AUDIO
    TITLE "Step4_Track15_25"
    INDEX 01 00:22:30
  TRACK 26 AUDIO
    TITLE "Step4_Track15_26"
    INDEX 01 00:22:53
  TRACK 27 AUDIO
    TITLE "Step4_Track15_27"
    INDEX 01 00:25:24
  TRACK 28 AUDIO
    TITLE "Step4_Track15_28"
    INDEX 01 00:25:46
  TRACK 29 AUDIO
    TITLE "Step4_Track15_29"
    INDEX 01 00:26:45
  TRACK 30 AUDIO
    TITLE "Step4_Track15_30"
    INDEX 01 00:26:66
  TRACK 31 AUDIO
    TITLE "Step4_Track15_31"
    INDEX 01 00:29:51
  TRACK 32 AUDIO
    TITLE "Step4_Track15_32"
    INDEX 01 00:30:02
  TRACK 33 AUDIO
    TITLE "Step4_Track15_33"
    INDEX 01 00:30:64
  TRACK 34 AUDIO
    TITLE "Step4_Track15_34"
    INDEX 01 00:31:11
  TRACK 35 AUDIO
    TITLE "Step4_Track15_35"
    INDEX 01 00:33:74
  TRACK 36 AUDIO
    TITLE "Step4_Track15_36"
    INDEX 01 00:34:15
  TRACK 37 AUDIO
    TITLE "Step4_Track15_37"
    INDEX 01 00:35:13
  TRACK 38 AUDIO
    TITLE "Step4_Track15_38"
    INDEX 01 00:35:40
  TRACK 39 AUDIO
    TITLE "Step4_Track15_39"
    INDEX 01 00:39:01
  TRACK 40 AUDIO
    TITLE "Step4_Track15_40"
    INDEX 01 00:39:18
  TRACK 41 AUDIO
    TITLE "Step4_Track15_41"
    INDEX 01 00:40:18
  TRACK 42 AUDIO
    TITLE "Step4_Track15_42"
    INDEX 01 00:40:27
  TRACK 43 AUDIO
    TITLE "Step4_Track15_43"
    INDEX 01 00:43:55
